<?xml version="1.0" standalone="no"?>
<!DOCTYPE svg PUBLIC "-//W3C//DTD SVG 20010904//EN"
 "http://www.w3.org/TR/2001/REC-SVG-20010904/DTD/svg10.dtd">
<svg version="1.0" xmlns="http://www.w3.org/2000/svg"
 width="1000.000000pt" height="563.000000pt" viewBox="0 0 1000.000000 563.000000"
 preserveAspectRatio="xMidYMid meet">

<g transform="translate(0.000000,563.000000) scale(0.100000,-0.100000)"
fill="#000000" stroke="none">
<path d="M4150 3055 l0 -195 30 0 30 0 0 135 c0 74 3 135 8 135 4 0 23 -25 42
-55 48 -76 75 -76 127 0 21 30 40 54 43 55 3 0 4 -61 2 -135 l-4 -135 36 0 36
0 0 195 0 195 -32 0 c-30 -1 -38 -8 -82 -76 -27 -41 -53 -77 -57 -80 -5 -2
-33 32 -64 76 -49 69 -61 80 -86 80 l-29 0 0 -195z"/>
<path d="M4560 3055 l0 -195 138 0 137 0 0 25 0 25 -102 0 -103 0 0 55 0 55
76 0 75 0 -3 28 c-3 26 -5 27 -75 30 l-73 3 0 49 0 49 102 3 102 3 0 30 0 30
-137 3 -137 3 0 -196z"/>
<path d="M4900 3055 l0 -195 113 0 c160 1 167 8 167 196 l0 127 -36 33 -35 34
-105 0 -104 0 0 -195z m208 113 c14 -14 17 -215 4 -235 -4 -7 -40 -15 -80 -19
l-72 -7 0 137 0 136 68 0 c40 0 73 -5 80 -12z"/>
<path d="M5230 3215 c0 -35 0 -35 45 -35 l46 0 -3 -132 -3 -133 -42 -3 c-38
-3 -43 -6 -43 -28 l0 -24 120 0 120 0 0 24 c0 22 -5 25 -42 28 l-43 3 -3 133
-3 132 46 0 c45 0 45 0 45 35 l0 35 -120 0 -120 0 0 -35z"/>
<path d="M5566 3150 c-45 -97 -46 -103 -46 -195 l0 -95 35 0 35 0 0 50 0 50
80 0 80 0 0 -50 c0 -49 0 -50 31 -50 l31 0 -4 108 c-4 103 -5 110 -47 195
l-44 87 -52 0 -52 0 -47 -100z m149 -40 c19 -38 35 -74 35 -80 0 -6 -32 -10
-80 -10 -65 0 -80 3 -80 15 0 31 59 145 74 145 9 0 30 -29 51 -70z"/>
<path d="M5505 2772 c-36 -3 -45 -10 -100 -79 l-60 -75 -3 76 -3 76 -29 0 -30
0 0 -195 0 -195 30 0 30 0 0 83 1 82 44 -50 c25 -27 55 -65 67 -82 20 -28 29
-33 66 -33 23 0 42 3 42 6 0 3 -39 49 -86 101 -86 95 -86 95 -67 116 103 118
145 168 142 170 -2 1 -22 1 -44 -1z"/>
<path d="M4150 2575 l0 -195 30 0 29 0 3 146 3 146 40 -59 c56 -82 81 -83 131
-9 20 31 40 56 43 56 3 0 6 -62 6 -137 l0 -138 33 -3 32 -3 0 195 0 196 -34 0
c-32 0 -39 -6 -87 -75 -28 -41 -53 -75 -55 -75 -1 0 -27 34 -55 75 -48 68 -56
75 -86 75 l-33 0 0 -195z"/>
<path d="M4586 2739 c-25 -29 -26 -36 -26 -149 0 -137 7 -162 52 -190 48 -29
153 -28 198 3 44 29 53 65 48 205 -3 110 -4 115 -31 138 -25 22 -37 24 -122
24 -92 0 -94 0 -119 -31z m197 -38 c4 -4 6 -61 5 -127 l-3 -119 -70 -3 c-91
-4 -95 2 -95 128 0 100 8 124 45 133 25 7 107 -2 118 -12z"/>
<path d="M4920 2575 l0 -195 30 0 29 0 3 151 3 152 78 -94 c76 -93 77 -94 77
-151 0 -58 0 -58 30 -58 l29 0 3 195 3 195 -32 0 -32 0 -3 -91 -3 -91 -74 91
c-67 81 -78 91 -108 91 l-33 0 0 -195z"/>
<path d="M5599 2741 c-33 -33 -37 -67 -14 -111 11 -21 38 -40 98 -68 92 -44
112 -62 102 -92 -6 -17 -15 -20 -71 -20 -53 0 -66 3 -76 20 -8 12 -24 20 -41
20 -27 0 -29 -2 -23 -27 4 -16 21 -40 38 -55 28 -25 41 -28 99 -28 63 0 70 2
103 34 28 26 36 41 36 68 0 50 -28 80 -112 118 -84 38 -108 56 -108 81 0 25
30 39 84 39 42 0 76 -18 76 -41 0 -5 14 -9 30 -9 40 0 40 31 1 71 -28 27 -34
29 -111 29 -77 0 -83 -2 -111 -29z"/>
</g>
</svg>
